<svg width="56" height="56" viewBox="0 0 56 56" fill="none" xmlns="http://www.w3.org/2000/svg">
<path d="M24.897 46.5955C24.337 46.6422 23.777 46.6655 23.217 46.6655C20.487 46.6655 17.897 46.0122 15.587 44.8689L6.51031 46.1755L7.887 37.0522H7.91032C6.97699 34.9989 6.41699 32.7355 6.41699 30.3322C6.41699 25.9222 8.21365 21.9322 11.107 18.9922" stroke="black" stroke-width="1.5" stroke-linecap="round" stroke-linejoin="round"/>
<path d="M25.3403 27.4837C26.3712 27.4837 27.207 26.6689 27.207 25.6637C27.207 24.6586 26.3712 23.8438 25.3403 23.8438C24.3094 23.8438 23.4736 24.6586 23.4736 25.6637C23.4736 26.6689 24.3094 27.4837 25.3403 27.4837Z" fill="black"/>
<path d="M32.8081 27.4837C33.839 27.4837 34.6748 26.6689 34.6748 25.6637C34.6748 24.6586 33.839 23.8438 32.8081 23.8438C31.7771 23.8438 30.9414 24.6586 30.9414 25.6637C30.9414 26.6689 31.7771 27.4837 32.8081 27.4837Z" fill="black"/>
<path d="M40.2505 27.4837C41.2814 27.4837 42.1171 26.6689 42.1171 25.6637C42.1171 24.6586 41.2814 23.8438 40.2505 23.8438C39.2195 23.8438 38.3838 24.6586 38.3838 25.6637C38.3838 26.6689 39.2195 27.4837 40.2505 27.4837Z" fill="black"/>
<path d="M48.1125 32.3892L49.4892 41.5125L40.4125 40.2058C38.7792 41.0225 37.0059 41.5825 35.1159 41.8392C34.3692 41.9558 33.5759 42.0025 32.7825 42.0025C23.4959 42.0025 16.0059 34.6992 16.0059 25.6692C16.0059 21.1659 17.8492 17.1526 20.8825 14.1893C23.8925 11.1793 28.1159 9.33594 32.8059 9.33594C42.0925 9.33594 49.5825 16.6392 49.5825 25.6692C49.5825 28.0725 49.0225 30.3359 48.0892 32.3892H48.1125V32.3892Z" stroke="black" stroke-width="1.5" stroke-linecap="round" stroke-linejoin="round"/>
</svg>
